<?xml version="1.0" standalone="no"?>
<!DOCTYPE svg PUBLIC "-//W3C//DTD SVG 20010904//EN"
 "http://www.w3.org/TR/2001/REC-SVG-20010904/DTD/svg10.dtd">
<svg version="1.0" xmlns="http://www.w3.org/2000/svg"
 width="512.000000pt" height="512.000000pt" viewBox="0 0 512.000000 512.000000"
 preserveAspectRatio="xMidYMid meet">

<g transform="translate(0.000000,512.000000) scale(0.100000,-0.100000)"
fill="#000000" stroke="none">
<path d="M2195 4804 c-267 -45 -508 -164 -675 -333 -169 -171 -265 -378 -316
-686 -14 -81 -18 -184 -20 -540 -1 -333 -6 -474 -18 -580 -39 -324 -133 -632
-301 -983 -97 -204 -135 -315 -142 -417 -16 -235 102 -399 313 -436 65 -11
210 -8 295 7 35 6 36 5 65 -52 39 -79 133 -173 209 -209 82 -39 192 -46 257
-17 79 35 120 112 104 197 -6 28 -31 62 -114 148 -76 80 -118 133 -146 185
-21 41 -34 77 -30 82 77 69 260 173 434 248 252 108 255 111 247 261 -3 65
-13 123 -32 180 l-27 83 -41 -6 c-130 -17 -187 -18 -268 -1 -171 34 -323 119
-446 249 -114 120 -155 222 -178 451 -9 89 -35 482 -42 620 l-5 120 63 25 c86
34 192 34 266 1 43 -19 56 -21 68 -11 31 26 17 50 -42 78 -51 24 -70 27 -158
27 -71 -1 -111 -6 -137 -17 -21 -10 -38 -14 -38 -10 0 24 57 235 96 353 40
125 49 142 77 160 69 42 105 20 162 -95 98 -201 215 -285 594 -428 299 -113
360 -145 450 -235 83 -84 127 -160 158 -274 15 -53 18 -105 18 -304 -1 -287
-16 -392 -101 -687 -79 -277 -88 -338 -87 -568 0 -176 3 -204 26 -291 55 -210
149 -341 297 -415 223 -112 427 -44 447 149 10 94 -10 142 -86 212 -151 140
-191 187 -237 279 -27 56 -50 120 -59 166 -7 41 -13 76 -12 77 5 4 151 -74
242 -130 124 -76 311 -258 399 -389 34 -49 68 -89 80 -92 40 -11 142 -6 200 9
220 57 390 241 432 465 34 179 6 273 -153 516 -61 93 -134 210 -162 260 -151
268 -275 636 -360 1074 -86 439 -104 518 -151 660 -84 256 -181 422 -330 563
-158 150 -399 261 -659 303 -106 17 -319 16 -426 -2z"/>
<path d="M1510 3291 c-79 -25 -109 -56 -90 -92 13 -24 26 -24 75 1 22 11 52
20 67 20 l27 0 -24 -25 c-22 -21 -25 -33 -25 -93 0 -82 15 -102 77 -102 59 0
73 21 73 108 0 40 6 81 12 92 34 54 -104 120 -192 91z"/>
<path d="M2372 3289 c-56 -11 -104 -45 -100 -72 5 -36 31 -42 80 -19 57 28 79
29 50 2 -19 -18 -22 -32 -22 -94 0 -87 14 -106 78 -106 56 0 72 25 72 108 0
53 4 67 21 81 31 25 17 55 -34 79 -54 26 -92 31 -145 21z"/>
</g>
</svg>
